<svg xmlns="http://www.w3.org/2000/svg" height="800" width="1200" viewBox="-3.68352 -2.10263 31.92384 12.61578"><g fill="none" fill-rule="evenodd"><path d="M21.66544 3.93664l-1.56607 2.69795-1.33615.0053 2.90222-5.07815 2.89136 5.07815h-1.3573l-1.53405-2.70352zM17.4485 5.4654h1.49648l-.6948 1.17449h-1.9505l.00529-1.43008V1.59296h1.14908l-.00529 3.87244zm-4.10422-3.87218c1.4269.0053 2.58127 1.13242 2.57598 2.52572-.00529 1.38826-1.15967 2.51565-2.58683 2.51565-1.4216-.00529-2.57598-1.13241-2.57598-2.52597.00529-1.38827 1.15967-2.5154 2.58683-2.5154zm-.0053 3.86715c.76412 0 1.37849-.60034 1.37849-1.34143.00555-.74084-.61437-1.34647-1.37319-1.34647-.75909-.0053-1.379.60034-1.379 1.34144-.0053.74083.61462 1.34646 1.37344 1.34646zM8.63048 3.7181c-.01587-.20902-.06958-.4855-.14975-.75142a3.81106 3.81106 0 00-.839-1.47716c-.2032-.21908-.43285-.4228-.77522-.66279A13.06645 13.06645 0 016.09709.4145C5.93146.32058 5.73355.20548 5.47188.12214a4.5159 4.5159 0 00-.94615-.11986c-.30957-.01058-.61992.01588-.91917.07303-.31538.05212-.57732.13546-.92471.21907-.78582.3392-1.39489.85064-1.91876 1.5293-1.82774 2.5519-.17621 6.12695 2.87549 6.5495.50244.06799 1.00489.0418 1.48034-.06774l.33682-.08864c.01058-.00529.02672-.01058.0373-.01058l.38497-.14605c.02117-.01058.0373-.01588.05874-.0262l.16034-.07302a4.38944 4.38944 0 00.86042-.55827 4.91543 4.91543 0 01-.78025.57917l.01587.01059c.05371-.01588.1016-.03149.15505-.0418 0 0 0 .08333-.01059.06772-.08546.06271.04816.0053.21908-.0836.17118-.08864.33681-.19844.4863-.32359.21934-.18256.4117-.381.68422-.70432.2778-.48551.62547-.90831.7858-1.47717.05345-.15134.10134-.32861.13362-.51144.03175-.18256.05345-.37042.05345-.56356-.0053-.19315-.02672-.39158-.06959-.63659zm-3.955 4.28995c.9353-.14632 1.72085-.66279 2.3622-1.36737.17648-.25585.31538-.4908.4863-.74639.21379-.52202.19791-.98637.26723-1.31498.08573-.59531-.11747-1.07527-.2884-1.5867-.26193-.59505-.60933-1.0385-1.21866-1.38298C4.7448.65977 2.64983.92568 1.6505 2.34543c-.0053 0-.03228.03652-.08572.10954.06958-.2921.24606-.46434.42227-.63156.52388-.42783 1.13321-.7673 1.828-.93398.78582-.0836 1.56581 0 2.2659.3392C7.1287 1.8234 7.82349 2.75792 7.9997 3.86388v1.02314C7.78063 6.56236 6.33759 7.8358 4.67548 8.00805zm3.84281-3.81C8.48072 1.74535 6.03835.09092 3.66001.42509c-.6948.17198-1.45388.51646-1.99363.99668-.26194.17198-.3847.49054-.64665.74613-1.04775 1.52929-.86571 3.48641.43815 4.6765a5.0554 5.0554 0 00.53446.45932C.90226 6.651.4104 5.66437.23948 4.46448c0-.4281.08546-.8509.17621-1.27873.6096-1.87378 2.5281-3.23585 4.61804-2.89137.3474.08361.6948.17225 1.04775.25586.43815.17197.871.42783 1.2184.76729.3474.33893.60934.76702.87128 1.18956.1762.33946.26193.7673.3474 1.1065a3.59554 3.59554 0 010 .58472z" fill="#000"/><path d="M6.34818 4.23456c0 1.05436-.88715 1.91029-1.98279 1.91029-1.09538 0-1.98279-.85593-1.98279-1.9103 0-1.0541.88715-1.91002 1.98279-1.91002s1.98279.85593 1.98279 1.9103z" fill="#fff"/><path d="M6.35903 3.91097c-.02673-.14605-.06959-.26088-.11219-.42254-.17118-.35507-.42227-.63156-.7538-.8665-1.23983-.81916-2.9448-.03123-3.12631 1.36762-.06932.55325.12832 1.08559.48101 1.49278-.1069-.1098-.22437-.22436-.30454-.35507l-.01058.01059c.01058.03122.05345.05212.06403.08334 0 0-.04286 0-.03201-.0053-.03202-.03624-.0053.02117.0426.09923.04286.07831.0963.1516.16033.21934.09102.09921.18706.18785.3474.30797.23548.11986.4437.2765.71623.34952.07487.02116.16033.0418.24606.05741.09075.01588.17621.02117.27252.02117.09075 0 .18706-.01059.30453-.03175a2.19604 2.19604 0 00.35799-.07276 1.85526 1.85526 0 00.70564-.39688c.1016-.09366.24606-.21378.35798-.37042.09102-.17727.1016-.26617.14446-.34448.0426-.07832.09605-.16695.13362-.28708a2.45771 2.45771 0 00.05344-.43312c-.00529-.14605-.01587-.28707-.04815-.4228zM5.0869 2.94048c.18177.10425.20849.11986.11218.05212.13917.03122.22463.10954.3101.18786.20849.23495.3794.51144.46487.82973.04815.3601.01058.7202-.1442 1.03876-.27781.48524-.72152.80883-1.25069.89746-.05873 0-.12276 0-.18177.0053.14976-.0262.24607-.12013.51859-.21935.29369-.10424.6252-.58949.78581-.87153.47016-.7673-.08572-1.4769-.6149-1.92035zM4.08229 5.95673C3.27 5.8734 2.64454 5.21061 2.55908 4.44331c.07461.4281.33126.75671.67866 1.04908.12303.07831.30453.18785.42756.26617.2085.07831.33126.16192.53446.19844H4.0823zM6.268 4.56343c-.03704.16193-.07461.3183-.11218.48022-.08017.19844-.19765.4019-.35799.56357-.16033.16192-.36353.28707-.56647.40719-.16034.08334-.36354.12515-.52917.16669-.0963.01058-.20849-.03122-.3048-.03625 1.18666-.03149 1.99893-1.13242 1.82272-2.2233-.08573-.31829-.25665-.59504-.46514-.87153-.08546-.12012-.25135-.19315-.37412-.31327-.74295-.46434-1.72614-.37041-2.28732.24024a2.53841 2.53841 0 00-.21934.2556c.2995-.43842.78052-.74613 1.35758-.83503.2032-.0053.41169.03148.61462.068.898.2712 1.56607 1.1377 1.4216 2.09814z" fill="#d7df23"/></g></svg>